<svg width="400" height="400" viewBox="0 0 400 400" fill="none" xmlns="http://www.w3.org/2000/svg">
    <rect width="400" height="400" fill="white"/>
    <path d="M64.2358 167.091V234H48.0639V167.091H64.2358ZM74.3881 234V183.818H89.5799V193.031H90.1353C91.1808 189.982 92.945 187.575 95.4279 185.811C97.9109 184.047 100.873 183.165 104.314 183.165C107.799 183.165 110.783 184.058 113.266 185.844C115.749 187.63 117.328 190.026 118.003 193.031H118.526C119.462 190.047 121.292 187.662 124.015 185.876C126.737 184.069 129.95 183.165 133.652 183.165C138.4 183.165 142.256 184.689 145.218 187.739C148.18 190.766 149.661 194.926 149.661 200.219V234H133.685V203.878C133.685 201.373 133.042 199.467 131.757 198.161C130.472 196.832 128.806 196.168 126.759 196.168C124.559 196.168 122.828 196.886 121.564 198.324C120.323 199.74 119.702 201.645 119.702 204.041V234H104.347V203.714C104.347 201.384 103.715 199.544 102.452 198.193C101.189 196.843 99.5226 196.168 97.4535 196.168C96.0595 196.168 94.829 196.505 93.7617 197.18C92.6945 197.834 91.8559 198.77 91.2461 199.99C90.658 201.21 90.364 202.647 90.364 204.303V234H74.3881ZM159.56 234V183.818H175.536V234H159.56ZM167.564 177.97C165.321 177.97 163.393 177.23 161.782 175.749C160.17 174.246 159.364 172.438 159.364 170.325C159.364 168.234 160.17 166.448 161.782 164.967C163.393 163.464 165.321 162.713 167.564 162.713C169.829 162.713 171.757 163.464 173.347 164.967C174.959 166.448 175.765 168.234 175.765 170.325C175.765 172.438 174.959 174.246 173.347 175.749C171.757 177.23 169.829 177.97 167.564 177.97ZM201.68 167.091V234H185.705V167.091H201.68ZM235.274 234.947C230.003 234.947 225.473 233.869 221.683 231.713C217.915 229.535 215.007 226.508 212.96 222.631C210.934 218.732 209.922 214.213 209.922 209.072C209.922 203.911 210.934 199.391 212.96 195.514C215.007 191.616 217.915 188.588 221.683 186.432C225.473 184.254 230.003 183.165 235.274 183.165C240.545 183.165 245.064 184.254 248.832 186.432C252.622 188.588 255.529 191.616 257.555 195.514C259.602 199.391 260.626 203.911 260.626 209.072C260.626 214.213 259.602 218.732 257.555 222.631C255.529 226.508 252.622 229.535 248.832 231.713C245.064 233.869 240.545 234.947 235.274 234.947ZM235.372 222.892C237.288 222.892 238.911 222.304 240.24 221.128C241.568 219.952 242.581 218.318 243.278 216.227C243.997 214.136 244.356 211.719 244.356 208.974C244.356 206.187 243.997 203.747 243.278 201.656C242.581 199.565 241.568 197.932 240.24 196.756C238.911 195.58 237.288 194.991 235.372 194.991C233.39 194.991 231.713 195.58 230.341 196.756C228.99 197.932 227.956 199.565 227.237 201.656C226.54 203.747 226.191 206.187 226.191 208.974C226.191 211.719 226.54 214.136 227.237 216.227C227.956 218.318 228.99 219.952 230.341 221.128C231.713 222.304 233.39 222.892 235.372 222.892ZM268.81 234V183.818H284.328V192.966H284.851C285.766 189.655 287.258 187.194 289.327 185.582C291.396 183.949 293.803 183.132 296.547 183.132C297.288 183.132 298.05 183.187 298.834 183.295C299.618 183.383 300.348 183.524 301.023 183.72V197.605C300.261 197.344 299.259 197.137 298.017 196.984C296.798 196.832 295.709 196.756 294.75 196.756C292.855 196.756 291.146 197.18 289.621 198.03C288.118 198.857 286.931 200.023 286.06 201.526C285.211 203.007 284.786 204.749 284.786 206.753V234H268.81ZM328.385 234.947C323.136 234.947 318.605 233.913 314.794 231.844C311.004 229.753 308.085 226.78 306.038 222.925C304.012 219.048 303 214.441 303 209.105C303 203.921 304.023 199.391 306.071 195.514C308.118 191.616 311.004 188.588 314.728 186.432C318.453 184.254 322.842 183.165 327.895 183.165C331.467 183.165 334.734 183.72 337.696 184.831C340.658 185.942 343.217 187.586 345.373 189.764C347.529 191.942 349.207 194.632 350.404 197.834C351.602 201.014 352.201 204.662 352.201 208.778V212.764H308.586V203.486H337.336C337.315 201.787 336.912 200.273 336.127 198.945C335.343 197.616 334.265 196.581 332.893 195.841C331.543 195.079 329.985 194.697 328.221 194.697C326.435 194.697 324.834 195.1 323.419 195.906C322.003 196.69 320.881 197.768 320.054 199.141C319.226 200.491 318.79 202.027 318.747 203.747V213.189C318.747 215.236 319.15 217.033 319.956 218.58C320.761 220.104 321.905 221.291 323.386 222.141C324.867 222.99 326.631 223.415 328.679 223.415C330.094 223.415 331.379 223.219 332.534 222.827C333.688 222.435 334.679 221.857 335.507 221.095C336.334 220.333 336.955 219.396 337.369 218.286L352.038 218.71C351.428 221.999 350.089 224.863 348.02 227.303C345.972 229.72 343.282 231.604 339.95 232.955C336.618 234.283 332.762 234.947 328.385 234.947Z" fill="#2196F3"/>
</svg>